<?xml version="1.0" encoding="iso-8859-1"?>
<!-- Generator: Adobe Illustrator 19.0.0, SVG Export Plug-In . SVG Version: 6.00 Build 0)  -->
<svg version="1.1" id="Layer_1" xmlns="http://www.w3.org/2000/svg" xmlns:xlink="http://www.w3.org/1999/xlink" x="0px" y="0px"
	 viewBox="0 0 512 512" style="enable-background:new 0 0 512 512;" xml:space="preserve">
<path style="fill:#B3DA73;" d="M511.344,274.266C511.77,268.231,512,262.143,512,256C512,114.615,397.385,0,256,0S0,114.615,0,256
	c0,117.769,79.53,216.949,187.809,246.801L511.344,274.266z"/>
<path style="fill:#89C429;" d="M511.344,274.266L314.991,77.913L119.096,434.087l68.714,68.714C209.522,508.787,232.385,512,256,512
	C391.243,512,501.976,407.125,511.344,274.266z"/>
<polygon style="fill:#FFFFFF;" points="278.328,333.913 255.711,77.913 119.096,77.913 119.096,311.652 "/>
<polygon style="fill:#E8E6E6;" points="392.904,311.652 392.904,155.826 337.252,133.565 314.991,77.913 255.711,77.913 
	256.067,333.913 "/>
<polygon style="fill:#FFFFFF;" points="314.991,155.826 314.991,77.913 392.904,155.826 "/>
<rect x="119.096" y="311.652" style="fill:#709E21;" width="273.809" height="122.435"/>
<g>
	<path style="fill:#FFFFFF;" d="M222.958,354.863l-7.795,9.233c-3.48-4.238-8.627-6.887-13.32-6.887
		c-8.4,0-14.758,6.659-14.758,15.363c0,8.854,6.358,15.589,14.758,15.589c4.466,0,9.611-2.422,13.32-6.206l7.87,8.324
		c-5.677,5.827-14.076,9.687-21.871,9.687c-15.969,0-27.849-11.73-27.849-27.245c0-15.287,12.184-26.79,28.304-26.79
		C209.487,345.933,217.661,349.413,222.958,354.863z"/>
	<path style="fill:#FFFFFF;" d="M253.841,346.387c16.649,0,28.153,10.746,28.153,26.487c0,15.666-11.656,26.488-28.683,26.488
		h-22.25v-52.975H253.841z M244.531,388.615h9.611c8.249,0,14.151-6.357,14.151-15.665c0-9.384-6.205-15.817-14.757-15.817h-9.006
		V388.615z"/>
	<path style="fill:#FFFFFF;" d="M315.069,384.453h-0.378h-10.217v14.909h-13.471v-52.975h23.687
		c14.001,0,22.023,6.659,22.023,18.465c0,8.097-3.406,13.925-9.611,17.027l11.125,17.483H322.94L315.069,384.453z M314.691,373.858
		c5.828,0,9.233-2.952,9.233-8.552c0-5.525-3.405-8.324-9.233-8.324h-10.217v16.877h10.217V373.858z"/>
</g>
<g>
</g>
<g>
</g>
<g>
</g>
<g>
</g>
<g>
</g>
<g>
</g>
<g>
</g>
<g>
</g>
<g>
</g>
<g>
</g>
<g>
</g>
<g>
</g>
<g>
</g>
<g>
</g>
<g>
</g>
</svg>
