<?xml version="1.0" encoding="UTF-8"?>
<!DOCTYPE svg PUBLIC "-//W3C//DTD SVG 1.1//EN" "http://www.w3.org/Graphics/SVG/1.1/DTD/svg11.dtd">
<!-- Creator: CorelDRAW 2019 (64-Bit) -->
<svg xmlns="http://www.w3.org/2000/svg" xml:space="preserve" width="1.12458in" height="1.08972in" version="1.1" shape-rendering="geometricPrecision" text-rendering="geometricPrecision" image-rendering="optimizeQuality" fill-rule="evenodd" clip-rule="evenodd"
viewBox="0 0 105 102"
 xmlns:xlink="http://www.w3.org/1999/xlink">
 <g id="Layer_x0020_1">
  <metadata id="CorelCorpID_0Corel-Layer"/>
  <g id="_2113955626384">
   <path fill="#B3DA73" d="M65 72c0,-1 0,-2 0,-2 0,-18 -14,-32 -32,-32 -18,0 -32,14 -32,32 0,15 10,27 24,31l41 -29z"/>
   <path fill="#89C429" d="M65 72l-25 -25 -25 45 9 9c3,1 6,1 9,1 17,0 31,-13 32,-30z"/>
   <polygon fill="white" points="36,79 33,47 16,47 16,77 "/>
   <polygon fill="#E8E6E6" points="51,77 51,57 44,54 41,47 33,47 33,79 "/>
   <polygon fill="white" points="41,57 41,47 51,57 "/>
   <rect fill="#709E21" x="16" y="77" width="34" height="15"/>
   <g>
    <path fill="white" d="M29 82l-1 1c0,-1 -1,-1 -2,-1 -1,0 -2,1 -2,2 0,1 1,2 2,2 1,0 1,0 2,-1l1 1c-1,1 -2,1 -3,1 -2,0 -3,-1 -3,-3 0,-2 2,-3 4,-3 1,0 2,0 3,1z"/>
    <path fill="white" d="M33 81c2,0 4,1 4,3 0,2 -1,3 -4,3l-3 0 0 -7 3 0zm-1 5l1 0c1,0 2,-1 2,-2 0,-1 -1,-2 -2,-2l-1 0 0 4 0 0z"/>
    <path fill="white" d="M41 86l0 0 -1 0 0 2 -2 0 0 -7 3 0c2,0 3,1 3,2 0,1 0,2 -1,2l1 2 -2 0 -1 -2zm0 -1c1,0 1,0 1,-1 0,-1 0,-1 -1,-1l-1 0 0 2 1 0 0 0z"/>
   </g>
   <g>
   </g>
   <g>
   </g>
   <g>
   </g>
   <g>
   </g>
   <g>
   </g>
   <g>
   </g>
   <g>
   </g>
   <g>
   </g>
   <g>
   </g>
   <g>
   </g>
   <g>
   </g>
   <g>
   </g>
   <g>
   </g>
   <g>
   </g>
   <g>
   </g>
  </g>
  <g id="_2113955640208">
   <path fill="#00477D" d="M65 35c0,-1 0,-2 0,-2 0,-18 -15,-33 -33,-33 -18,0 -33,15 -33,33 0,15 10,28 24,31l41 -29z"/>
   <path fill="#000036" d="M65 35l-25 -25 -25 45 9 9c3,1 6,1 9,1 17,0 31,-13 33,-30z"/>
   <polygon fill="white" points="35,43 33,10 15,10 15,40 "/>
   <polygon fill="#E8E6E6" points="50,40 50,20 43,17 40,10 33,10 33,43 "/>
   <polygon fill="white" points="40,20 40,10 50,20 "/>
   <rect fill="#3CA8FA" x="15" y="40" width="35" height="16"/>
   <g>
    <path fill="white" d="M26 44c2,0 3,1 3,2 0,2 -1,2 -3,2l-1 0 0 2 -2 0 0 -7 3 0 0 0zm-1 3l1 0c1,0 1,0 1,-1 0,-1 0,-1 -1,-1l-1 0 0 2z"/>
    <path fill="white" d="M35 45l-1 1c-1,0 -2,-1 -2,-1 0,0 -1,0 -1,0 0,1 4,1 4,3 0,1 -1,2 -3,2 -1,0 -2,0 -3,-1l1 -1c1,1 2,1 2,1 1,0 1,0 1,-1 0,-1 -4,0 -4,-3 0,-1 1,-2 3,-2 1,0 2,0 3,1z"/>
    <path fill="white" d="M39 44c2,0 4,1 4,3 0,2 -1,3 -4,3l-3 0 0 -7 3 0zm-1 5l1 0c1,0 2,-1 2,-2 0,-1 -1,-2 -2,-2l-1 0 0 4 0 0z"/>
   </g>
   <g>
   </g>
   <g>
   </g>
   <g>
   </g>
   <g>
   </g>
   <g>
   </g>
   <g>
   </g>
   <g>
   </g>
   <g>
   </g>
   <g>
   </g>
   <g>
   </g>
   <g>
   </g>
   <g>
   </g>
   <g>
   </g>
   <g>
   </g>
   <g>
   </g>
  </g>
  <g id="_2113955654000">
   <circle fill="#FFD630" cx="75" cy="52" r="31"/>
   <path fill="#F5BE18" d="M105 51l-14 -14 -32 32 14 14c1,0 1,0 2,0 17,0 31,-14 31,-31 0,-1 0,-1 0,-2l0 0z"/>
   <path fill="#E84F4F" d="M59 36l30 0c1,0 1,1 1,1l0 30c0,1 -1,1 -1,1l-30 0c-1,0 -1,-1 -1,-1l0 -30c0,-1 1,-1 1,-1z"/>
   <rect fill="#EFEFF0" x="59" y="41" width="31" height="27"/>
   <g>
    <path fill="white" d="M70 38l19 0c0,0 0,0 0,0l0 1c0,0 0,0 0,0l-19 0c0,0 0,0 0,0l0 -1c0,0 0,0 0,0z"/>
    <path fill="white" d="M61 37c1,0 1,0 1,1 0,1 0,1 -1,1 -1,0 -1,0 -1,-1 0,-1 0,-1 1,-1zm5 0c1,0 1,0 1,1 0,1 0,1 -1,1 -1,0 -1,0 -1,-1 0,-1 0,-1 1,-1zm-3 0c1,0 1,0 1,1 0,1 0,1 -1,1 -1,0 -1,0 -1,-1 0,-1 0,-1 1,-1z"/>
   </g>
   <rect fill="#00CC96" x="61" y="43" width="27" height="8"/>
   <rect fill="#E84F4F" x="79" y="54" width="9" height="7"/>
   <path fill="#898989" d="M61 54l16 0 0 1 -16 0 0 -1 0 0zm0 10l16 0 0 1 -16 0 0 -1 0 0zm0 -2l16 0 0 1 -16 0 0 -1 0 0zm0 -2l16 0 0 1 -16 0 0 -1 0 0zm0 -2l16 0 0 1 -16 0 0 -1 0 0z"/>
   <g>
   </g>
   <g>
   </g>
   <g>
   </g>
   <g>
   </g>
   <g>
   </g>
   <g>
   </g>
   <g>
   </g>
   <g>
   </g>
   <g>
   </g>
   <g>
   </g>
   <g>
   </g>
   <g>
   </g>
   <g>
   </g>
   <g>
   </g>
   <g>
   </g>
  </g>
  <path fill="white" fill-rule="nonzero" d="M66 75l-1 0 0 -1 -2 0 0 1 -1 0 2 -5 1 0 2 5zm-2 -2l-1 -2 -1 2 1 0z"/>
  <path id="1" fill="white" fill-rule="nonzero" d="M69 73l1 0c0,1 0,1 -1,1 0,0 -1,0 -1,0 -1,0 -1,0 -2,-1 0,0 -1,-1 -1,-2 0,-1 0,-1 1,-2 0,0 1,-1 2,-1 1,0 1,0 1,1 0,0 0,0 0,1l-1 0c0,0 0,0 0,-1 0,0 0,0 -1,0 0,0 -1,0 -1,0 0,0 0,1 0,1 0,1 0,1 0,1 0,0 0,0 1,0 0,0 0,0 1,0 0,0 0,0 0,-1z"/>
  <path id="2" fill="white" fill-rule="nonzero" d="M74 73l1 0c0,1 0,1 -1,1 0,0 -1,0 -1,0 -1,0 -1,0 -2,-1 0,0 -1,-1 -1,-2 0,-1 0,-1 1,-2 0,0 1,-1 2,-1 1,0 1,0 1,1 0,0 0,0 0,1l-1 0c0,0 0,0 0,-1 0,0 0,0 -1,0 0,0 -1,0 -1,0 0,0 0,1 0,1 0,1 0,1 0,1 0,0 0,0 1,0 0,0 0,0 1,0 0,0 0,0 0,-1z"/>
  <polygon id="3" fill="white" fill-rule="nonzero" points="76,75 76,70 79,70 79,71 77,71 77,72 79,72 79,73 77,73 77,74 79,74 79,75 "/>
  <path id="4" fill="white" fill-rule="nonzero" d="M80 74l1 0c0,0 0,1 0,1 0,0 0,0 1,0 0,0 1,0 1,0 0,0 0,0 0,0 0,0 0,0 0,0 0,0 0,0 0,0 0,0 0,0 -1,0 -1,0 -1,0 -1,0 0,0 0,-1 0,-1 0,0 0,0 0,-1 0,0 0,0 1,0 0,0 1,0 1,0 1,0 1,0 1,0 0,0 0,1 0,1l-1 0c0,0 0,0 0,-1 0,0 0,0 -1,0 0,0 0,0 -1,0 0,0 0,0 0,0 0,0 0,0 0,0 0,0 0,0 1,0 0,0 1,0 1,0 0,0 0,0 1,0 0,0 0,0 0,1 0,0 0,1 0,1 0,0 0,0 -1,1 0,0 -1,0 -1,0 -1,0 -1,0 -1,0 0,0 -1,-1 -1,-1z"/>
  <path id="5" fill="white" fill-rule="nonzero" d="M84 74l1 0c0,0 0,1 0,1 0,0 0,0 1,0 0,0 1,0 1,0 0,0 0,0 0,0 0,0 0,0 0,0 0,0 0,0 0,0 0,0 0,0 -1,0 -1,0 -1,0 -1,0 0,0 0,-1 0,-1 0,0 0,0 0,-1 0,0 0,0 1,0 0,0 1,0 1,0 1,0 1,0 1,0 0,0 0,1 0,1l-1 0c0,0 0,0 0,-1 0,0 0,0 -1,0 0,0 0,0 -1,0 0,0 0,0 0,0 0,0 0,0 0,0 0,0 0,0 1,0 0,0 1,0 1,0 0,0 0,0 1,0 0,0 0,0 0,1 0,0 0,1 0,1 0,0 0,0 -1,1 0,0 -1,0 -1,0 -1,0 -1,0 -1,0 0,0 -1,-1 -1,-1z"/>
 </g>
</svg>
