<?xml version="1.0" encoding="UTF-8"?>
<!DOCTYPE svg PUBLIC "-//W3C//DTD SVG 1.0//EN" "http://www.w3.org/TR/2001/REC-SVG-20010904/DTD/svg10.dtd">
<!-- Creator: CorelDRAW 2019 (64-Bit) -->
<svg xmlns="http://www.w3.org/2000/svg" xml:space="preserve" width="1.04144in" height="1.01684in" version="1.0" style="shape-rendering:geometricPrecision; text-rendering:geometricPrecision; image-rendering:optimizeQuality; fill-rule:evenodd; clip-rule:evenodd"
viewBox="0 0 67.87 66.26"
 xmlns:xlink="http://www.w3.org/1999/xlink">
 <defs>
  <style type="text/css">
   <![CDATA[
    .fil1 {fill:#EB3C00}
    .fil0 {fill:#EB3C00;fill-rule:nonzero}
   ]]>
  </style>
 </defs>
 <g id="Layer_x0020_1">
  <metadata id="CorelCorpID_0Corel-Layer"/>
  <path class="fil0" d="M-0 57.14c0,-1.82 0.27,-3.34 0.82,-4.58 0.4,-0.91 0.96,-1.73 1.66,-2.45 0.7,-0.72 1.47,-1.26 2.3,-1.61 1.11,-0.47 2.39,-0.71 3.85,-0.71 2.63,0 4.73,0.82 6.31,2.45 1.58,1.64 2.37,3.9 2.37,6.81 0,2.88 -0.78,5.14 -2.35,6.77 -1.56,1.63 -3.66,2.44 -6.28,2.44 -2.65,0 -4.76,-0.81 -6.33,-2.43 -1.56,-1.62 -2.35,-3.85 -2.35,-6.7zm3.71 -0.12c0,2.02 0.47,3.55 1.4,4.6 0.93,1.04 2.12,1.56 3.56,1.56 1.44,0 2.62,-0.52 3.54,-1.55 0.92,-1.04 1.38,-2.59 1.38,-4.66 0,-2.05 -0.45,-3.57 -1.35,-4.58 -0.9,-1.01 -2.09,-1.51 -3.58,-1.51 -1.49,0 -2.68,0.51 -3.59,1.53 -0.91,1.02 -1.37,2.56 -1.37,4.61z"/>
  <path id="1" class="fil0" d="M35.88 51.28l0 -3.16 3.42 0 0 3.16 -3.42 0zm0 14.66l0 -12.92 3.42 0 0 12.92 -3.42 0zm-17.3 -12.92l1.9 0 0 -0.97c0,-1.09 0.12,-1.9 0.35,-2.44 0.23,-0.54 0.66,-0.98 1.27,-1.31 0.62,-0.34 1.41,-0.51 2.35,-0.51 0.98,0 1.93,0.15 2.86,0.44l-0.46 2.37c-0.54,-0.13 -1.07,-0.19 -1.57,-0.19 -0.5,0 -0.85,0.12 -1.07,0.35 -0.22,0.23 -0.32,0.68 -0.32,1.34l0 0.92 4.27 0 0 -0.97c0,-1.09 0.12,-1.9 0.34,-2.44 0.23,-0.54 0.66,-0.98 1.28,-1.31 0.62,-0.34 1.4,-0.51 2.35,-0.51 0.97,0 1.93,0.15 2.85,0.44l-0.46 2.37c-0.54,-0.13 -1.07,-0.19 -1.57,-0.19 -0.49,0 -0.85,0.12 -1.06,0.35 -0.22,0.23 -0.32,0.68 -0.32,1.34l0 0.92 2.55 0 0 2.69 -2.55 0 0 10.23 -3.41 0 0 -10.23 -4.27 0 0 10.23 -3.42 0 0 -10.23 -1.9 0 0 -2.69z"/>
  <path id="2" class="fil0" d="M54.17 56.85l-3.36 0.6c-0.11,-0.67 -0.37,-1.17 -0.77,-1.51 -0.4,-0.34 -0.92,-0.51 -1.56,-0.51 -0.85,0 -1.53,0.29 -2.04,0.88 -0.51,0.59 -0.76,1.57 -0.76,2.95 0,1.54 0.26,2.62 0.77,3.25 0.51,0.63 1.2,0.95 2.07,0.95 0.65,0 1.18,-0.19 1.59,-0.56 0.41,-0.37 0.71,-1 0.88,-1.91l3.36 0.57c-0.35,1.54 -1.02,2.71 -2,3.5 -0.99,0.79 -2.31,1.18 -3.98,1.18 -1.88,0 -3.39,-0.6 -4.51,-1.79 -1.12,-1.2 -1.68,-2.85 -1.68,-4.96 0,-2.14 0.56,-3.8 1.69,-4.99 1.12,-1.19 2.65,-1.78 4.57,-1.78 1.57,0 2.82,0.34 3.75,1.02 0.93,0.68 1.59,1.71 2,3.09z"/>
  <path id="3" class="fil0" d="M64.23 61.86l3.41 0.57c-0.44,1.25 -1.13,2.2 -2.07,2.85 -0.95,0.65 -2.13,0.98 -3.54,0.98 -2.24,0 -3.91,-0.73 -4.98,-2.2 -0.85,-1.18 -1.28,-2.66 -1.28,-4.46 0,-2.14 0.56,-3.82 1.68,-5.03 1.12,-1.22 2.53,-1.82 4.24,-1.82 1.92,0 3.43,0.63 4.54,1.9 1.11,1.27 1.64,3.22 1.59,5.84l-8.54 0c0.02,1.01 0.3,1.8 0.83,2.37 0.52,0.56 1.18,0.85 1.96,0.85 0.54,0 0.98,-0.15 1.34,-0.44 0.37,-0.29 0.64,-0.76 0.83,-1.41zm0.2 -3.46c-0.02,-0.99 -0.28,-1.75 -0.76,-2.26 -0.49,-0.52 -1.07,-0.78 -1.77,-0.78 -0.74,0 -1.36,0.27 -1.84,0.82 -0.49,0.54 -0.72,1.29 -0.71,2.22l5.09 0z"/>
  <polygon class="fil1" points="14.55,30.59 14.55,7.61 34.94,0 46.02,3.55 46.02,34.58 34.94,37.92 15.19,30.67 34.94,33.04 34.94,6.21 21.64,9.31 21.64,27.49 "/>
 </g>
</svg>
