<?xml version="1.0" encoding="UTF-8"?>
<!DOCTYPE svg PUBLIC "-//W3C//DTD SVG 1.1//EN" "http://www.w3.org/Graphics/SVG/1.1/DTD/svg11.dtd">
<!-- Creator: CorelDRAW X7 -->
<svg xmlns="http://www.w3.org/2000/svg" xml:space="preserve" width="1.65013in" height="1.65013in" version="1.1" style="shape-rendering:geometricPrecision; text-rendering:geometricPrecision; image-rendering:optimizeQuality; fill-rule:evenodd; clip-rule:evenodd"
viewBox="0 0 162 162"
 xmlns:xlink="http://www.w3.org/1999/xlink">
 <defs>
  <style type="text/css">
   <![CDATA[
    .fil2 {fill:none}
    .fil0 {fill:#D24625}
    .fil1 {fill:white}
   ]]>
  </style>
   <clipPath id="id0">
    <path d="M81 0c45,0 81,36 81,81 0,45 -36,81 -81,81 -45,0 -81,-36 -81,-81 0,-45 36,-81 81,-81z"/>
   </clipPath>
 </defs>
 <g id="Layer_x0020_1">
  <metadata id="CorelCorpID_0Corel-Layer"/>
  <path class="fil0" d="M81 0c45,0 81,36 81,81 0,45 -36,81 -81,81 -45,0 -81,-36 -81,-81 0,-45 36,-81 81,-81z"/>
  <g style="clip-path:url(#id0)">
   <g id="_264152392">
    <g>
     <path id="1" class="fil1" d="M84 26l7 0 0 11c14,1 27,0 41,1 3,-1 5,2 5,4 0,24 0,48 0,72 0,3 0,5 -1,8 -2,1 -4,1 -7,1 -12,0 -25,0 -38,0l0 13 -8 0c-19,-4 -39,-7 -58,-10 0,-30 0,-60 0,-90 19,-3 39,-7 59,-10z"/>
     <path class="fil0" d="M91 41l42 0 0 78 -42 0 0 -10 31 0 0 -5 -31 0 0 -7 31 0 0 -5 -31 0c0,-2 0,-5 0,-7 5,1 11,1 15,-2 5,-3 8,-8 8,-14 -5,0 -11,0 -17,0 0,-5 1,-11 0,-16 -2,0 -4,1 -6,1l0 -13 0 0z"/>
     <path class="fil1" d="M100 50c9,0 16,8 17,17 -6,0 -11,0 -17,0 0,-6 0,-11 0,-17l0 0z"/>
     <path class="fil0" d="M45 60c7,0 16,-3 21,2 6,7 4,19 -4,23 -3,2 -6,1 -9,1 0,5 0,10 0,15 -3,0 -5,0 -8,0 0,-14 0,-28 0,-41l0 0z"/>
     <path class="fil1" d="M53 67c2,0 5,-1 7,1 2,3 1,6 0,9 -1,2 -4,2 -7,2 0,-4 0,-8 0,-12l0 0z"/>
    </g>
   </g>
  </g>
  <path class="fil2" d="M81 0c45,0 81,36 81,81 0,45 -36,81 -81,81 -45,0 -81,-36 -81,-81 0,-45 36,-81 81,-81z"/>
 </g>
</svg>
