<svg width="20" height="26" viewBox="0 0 20 26" fill="none" xmlns="http://www.w3.org/2000/svg">
<path d="M19.925 4.9875V20.9875C19.925 21.5458 19.7625 22.0458 19.4375 22.4875C19.1125 22.9208 18.675 23.2125 18.125 23.3625L10.9625 25.425C10.8625 25.45 10.75 25.475 10.625 25.5H10.35C10.075 25.5 9.82501 25.4625 9.60001 25.3875C9.37501 25.3125 9.14584 25.2125 8.91251 25.0875L4.22501 22.4375C4.05001 22.3375 3.91251 22.2083 3.81251 22.05C3.71251 21.8917 3.66251 21.7125 3.66251 21.5125C3.66251 21.2125 3.77085 20.9583 3.98751 20.75C4.19585 20.5417 4.45001 20.4375 4.75001 20.4375H10.825V5.675L6.25001 7.3C5.89168 7.43333 5.60001 7.66667 5.37501 8C5.15001 8.31667 5.03751 8.67083 5.03751 9.0625V17.475C5.03751 17.825 4.95001 18.1417 4.77501 18.425C4.60835 18.7083 4.37085 18.9333 4.06251 19.1L1.91251 20.275C1.71251 20.3833 1.51251 20.4375 1.31251 20.4375C0.970846 20.4375 0.679179 20.3167 0.437512 20.075C0.195845 19.8333 0.0750122 19.5375 0.0750122 19.1875V7.3375C0.0750122 6.90417 0.187512 6.5 0.412512 6.125C0.645845 5.70833 0.950012 5.39167 1.32501 5.175L9.02501 0.8C9.20001 0.7 9.38751 0.625 9.58751 0.575C9.78751 0.525 9.98751 0.5 10.1875 0.5C10.3292 0.5 10.4583 0.5125 10.575 0.5375C10.6917 0.554167 10.8208 0.583333 10.9625 0.625L18.125 2.6125C18.4 2.6875 18.6458 2.8 18.8625 2.95C19.0792 3.1 19.2667 3.27917 19.425 3.4875C19.5917 3.70417 19.7167 3.9375 19.8 4.1875C19.8833 4.44583 19.925 4.7125 19.925 4.9875ZM18.275 20.9875V4.9875C18.275 4.79583 18.225 4.62917 18.125 4.4875C18 4.32917 17.8458 4.23333 17.6625 4.2L14.1375 3.225C13.8792 3.15 13.6042 3.075 13.3125 3C13.0375 2.90833 12.7667 2.82917 12.5 2.7625V23.2625L17.6625 21.75C17.8458 21.7167 18 21.6292 18.125 21.4875C18.225 21.3458 18.275 21.1792 18.275 20.9875Z" fill="white"/>
</svg>
