<svg width="30" height="26" viewBox="0 0 30 26" fill="none" xmlns="http://www.w3.org/2000/svg">
<path d="M22.0219 5.02659C21.6384 4.64596 21.2902 4.29909 20.9123 3.97003C15.4987 -0.877315 11.0602 0.158622 9.04359 1.29159C8.58844 1.54706 8.09297 1.90097 7.59656 2.30972C7.26562 2.06503 6.86953 2.02659 6.65578 2.238L6.51797 2.3744C5.73187 2.19722 4.90406 2.22253 4.11047 2.54878C1.84687 3.47831 0.9375 5.75034 0.9375 8.62612C0.9375 13.5096 3.78328 17.0875 5.35781 19.6108C6.39281 21.2688 7.72922 23.5769 7.72922 25.031H8.85C8.85 23.2614 7.43578 20.8272 6.31125 19.0263C4.73297 16.4974 2.05828 13.1927 2.05875 8.62518C2.05875 6.2144 2.70797 4.32487 4.53937 3.57347C4.84702 3.44834 5.17527 3.38158 5.50734 3.37659L5.43844 3.44456C5.22516 3.65737 5.26406 4.04925 5.51109 4.37737C5.09859 4.86956 4.74141 5.36034 4.48359 5.81221C3.34078 7.81096 2.29547 12.2107 7.18547 17.5774C7.52203 17.9566 7.87078 18.3002 8.25141 18.6775C16.8755 27.2266 23.5055 26.7471 26.8341 23.4475C30.1627 20.148 30.6464 13.5761 22.0219 5.02659ZM19.5337 3.993C17.9967 4.67643 16.5877 5.77096 15.2208 6.85143L10.1058 1.7805C12.2362 0.80784 15.4462 0.596434 19.5337 3.993ZM9.25734 2.23987L14.4956 7.43221C13.804 8.01052 13.1369 8.61745 12.4959 9.25143C11.8626 9.88072 11.256 10.5363 10.6777 11.2164L5.43891 6.02362C6.27469 4.72706 7.94812 3.06768 9.25734 2.23987ZM7.2075 16.211C3.78187 12.1596 3.99469 8.97768 4.97625 6.86503L10.0912 11.935C9.00234 13.2897 7.89844 14.6871 7.2075 16.211ZM26.1787 22.7969C22.3359 26.606 15.7181 24.7792 8.90672 18.0274C8.56217 17.6863 8.2246 17.3383 7.89422 16.9835C8.53969 15.3494 9.83672 13.7271 11.0241 12.25C11.5875 11.5497 12.4144 10.6324 13.1602 9.89315C13.9022 9.15768 14.8284 8.3369 15.5353 7.77815C17.0287 6.5969 18.6609 5.313 20.3133 4.67315C20.6503 4.97878 21.0586 5.37112 21.3661 5.67675C28.177 12.4282 30.0211 18.9878 26.1787 22.7969Z" fill="white"/>
</svg>
